<?xml version="1.0" encoding="UTF-8"?>
<!DOCTYPE svg PUBLIC "-//W3C//DTD SVG 1.1//EN" "http://www.w3.org/Graphics/SVG/1.1/DTD/svg11.dtd">
<!-- Creator: CorelDRAW X8 -->
<svg xmlns="http://www.w3.org/2000/svg" xml:space="preserve" width="249px" height="51px" version="1.1" style="shape-rendering:geometricPrecision; text-rendering:geometricPrecision; image-rendering:optimizeQuality; fill-rule:evenodd; clip-rule:evenodd"
viewBox="0 0 223257 45615"
 xmlns:xlink="http://www.w3.org/1999/xlink">
 <defs>
  <style type="text/css">
   <![CDATA[
    .str0 {stroke:#727376;stroke-width:806.558}
    .str1 {stroke:#FFDD89;stroke-width:806.558}
    .fil1 {fill:none;fill-rule:nonzero}
    .fil2 {fill:#FFF688;fill-rule:nonzero}
    .fil3 {fill:#00AFEF;fill-rule:nonzero}
    .fil7 {fill:#33CC99;fill-rule:nonzero}
    .fil6 {fill:#91D8F7;fill-rule:nonzero}
    .fil8 {fill:#91EDB0;fill-rule:nonzero}
    .fil0 {fill:#FF7D8E;fill-rule:nonzero}
    .fil5 {fill:#FFC2CA;fill-rule:nonzero}
    .fil4 {fill:#FFDD89;fill-rule:nonzero}
   ]]>
  </style>
 </defs>
 <g id="logo">
  <metadata id="CorelCorpID_0Corel-Layer"/>
  <path class="fil0" d="M28942 20034l-12097 0 0 -7468c0,-2175 -126,-3526 -381,-4070 -255,-534 -823,-806 -1693,-806 -979,0 -1606,326 -1869,979 -266,661 -401,2076 -401,4251l0 19957c0,2094 135,3453 401,4097 263,634 860,951 1780,951 891,0 1479,-317 1753,-961 274,-634 410,-2138 410,-4504l0 -5411 12097 0 0 1677c0,4459 -343,7622 -1018,9480 -675,1867 -2182,3499 -4501,4904 -2330,1404 -5189,2102 -8593,2102 -3534,0 -6450,-589 -8749,-1776 -2291,-1188 -3818,-2828 -4562,-4931 -743,-2103 -1116,-5256 -1116,-9471l0 -12562c0,-3099 118,-5419 343,-6970 234,-1550 909,-3045 2055,-4476 1135,-1432 2712,-2566 4728,-3391 2015,-824 4334,-1232 6958,-1232 3553,0 6489,634 8808,1912 2310,1269 3826,2856 4560,4759 725,1903 1087,4857 1087,8873l0 4087z"/>
  <path id="1" class="fil1 str0" d="M28942 20034l-12097 0 0 -7468c0,-2175 -126,-3526 -381,-4070 -255,-534 -823,-806 -1693,-806 -979,0 -1606,326 -1869,979 -266,661 -401,2076 -401,4251l0 19957c0,2094 135,3453 401,4097 263,634 860,951 1780,951 891,0 1479,-317 1753,-961 274,-634 410,-2138 410,-4504l0 -5411 12097 0 0 1677c0,4459 -343,7622 -1018,9480 -675,1867 -2182,3499 -4501,4904 -2330,1404 -5189,2102 -8593,2102 -3534,0 -6450,-589 -8749,-1776 -2291,-1188 -3818,-2828 -4562,-4931 -743,-2103 -1116,-5256 -1116,-9471l0 -12562c0,-3099 118,-5419 343,-6970 234,-1550 909,-3045 2055,-4476 1135,-1432 2712,-2566 4728,-3391 2015,-824 4334,-1232 6958,-1232 3553,0 6489,634 8808,1912 2310,1269 3826,2856 4560,4759 725,1903 1087,4857 1087,8873l0 4087z"/>
  <path class="fil2" d="M44485 1273l0 9689c999,-853 2075,-1496 3230,-1922 1154,-426 2397,-643 3719,-643 2025,0 3748,480 5176,1432 1420,960 2291,2057 2615,3308 313,1251 470,3535 470,6843l0 24308 -11568 0 0 -24807c0,-2048 -109,-3371 -335,-3951 -224,-590 -714,-880 -1487,-880 -714,0 -1194,300 -1448,906 -244,598 -372,1796 -372,3581l0 25151 -11569 0 0 -43015 11569 0z"/>
  <path id="1" class="fil1 str0" d="M44485 1273l0 9689c999,-853 2075,-1496 3230,-1922 1154,-426 2397,-643 3719,-643 2025,0 3748,480 5176,1432 1420,960 2291,2057 2615,3308 313,1251 470,3535 470,6843l0 24308 -11568 0 0 -24807c0,-2048 -109,-3371 -335,-3951 -224,-590 -714,-880 -1487,-880 -714,0 -1194,300 -1448,906 -244,598 -372,1796 -372,3581l0 25151 -11569 0 0 -43015 11569 0z"/>
  <path class="fil3" d="M91934 4373l0 5546 3230 0 0 5601 -3230 0 0 18843c0,2311 137,3608 401,3870 264,263 1360,399 3298,399l0 5656 -4688 0c-2643,0 -4531,-100 -5667,-308 -1124,-200 -2123,-671 -2984,-1405 -862,-735 -1400,-1569 -1615,-2520 -206,-942 -313,-3163 -313,-6661l0 -17874 -2466 0 0 -5601 2466 0 0 -5546 11568 0z"/>
  <path id="1" class="fil1 str0" d="M91934 4373l0 5546 3230 0 0 5601 -3230 0 0 18843c0,2311 137,3608 401,3870 264,263 1360,399 3298,399l0 5656 -4688 0c-2643,0 -4531,-100 -5667,-308 -1124,-200 -2123,-671 -2984,-1405 -862,-735 -1400,-1569 -1615,-2520 -206,-942 -313,-3163 -313,-6661l0 -17874 -2466 0 0 -5601 2466 0 0 -5546 11568 0z"/>
  <path class="fil4" d="M118360 22699l-10863 0 0 -2366c0,-2727 342,-4831 1017,-6317 675,-1477 2046,-2782 4091,-3915 2046,-1134 4698,-1704 7977,-1704 3914,0 6870,643 8857,1931 1986,1277 3181,2854 3582,4721 401,1868 606,5719 606,11547l0 17692 -11274 0 0 -3145c-706,1269 -1624,2211 -2741,2845 -1116,635 -2446,953 -4002,953 -2026,0 -3886,-526 -5578,-1577 -1694,-1061 -2535,-3363 -2535,-6925l0 -2900c0,-2638 450,-4432 1349,-5393 901,-961 3132,-2076 6695,-3345 3807,-1386 5843,-2311 6117,-2791 265,-481 401,-1450 401,-2928 0,-1839 -146,-3036 -450,-3598 -294,-552 -792,-834 -1487,-834 -794,0 -1283,236 -1469,707 -195,463 -293,1687 -293,3653l0 3689zm3699 4831c-1868,1259 -2955,2311 -3249,3163 -303,852 -450,2066 -450,3661 0,1831 128,3001 391,3535 254,535 773,797 1547,797 733,0 1203,-208 1429,-625 225,-416 332,-1504 332,-3281l0 -7250z"/>
  <path id="1" class="fil1 str1" d="M118360 22699l-10863 0 0 -2366c0,-2727 342,-4831 1017,-6317 675,-1477 2046,-2782 4091,-3915 2046,-1134 4698,-1704 7977,-1704 3914,0 6870,643 8857,1931 1986,1277 3181,2854 3582,4721 401,1868 606,5719 606,11547l0 17692 -11274 0 0 -3145c-706,1269 -1624,2211 -2741,2845 -1116,635 -2446,953 -4002,953 -2026,0 -3886,-526 -5578,-1577 -1694,-1061 -2535,-3363 -2535,-6925l0 -2900c0,-2638 450,-4432 1349,-5393 901,-961 3132,-2076 6695,-3345 3807,-1386 5843,-2311 6117,-2791 265,-481 401,-1450 401,-2928 0,-1839 -146,-3036 -450,-3598 -294,-552 -792,-834 -1487,-834 -794,0 -1283,236 -1469,707 -195,463 -293,1687 -293,3653l0 3689zm3699 4831c-1868,1259 -2955,2311 -3249,3163 -303,852 -450,2066 -450,3661 0,1831 128,3001 391,3535 254,535 773,797 1547,797 733,0 1203,-208 1429,-625 225,-416 332,-1504 332,-3281l0 -7250z"/>
  <path class="fil5" d="M148319 1273l12018 0c3799,0 6676,271 8633,825 1957,544 3533,1659 4736,3326 1204,1676 1802,4368 1802,8084 0,2511 -421,4261 -1273,5248 -851,997 -2534,1750 -5040,2284 2800,589 4698,1560 5696,2909 998,1360 1497,3436 1497,6245l0 3988c0,2909 -362,5058 -1077,6462 -714,1395 -1849,2357 -3415,2873 -1566,517 -4776,771 -9631,771l-13946 0 0 -43015zm12097 7341l0 9572c508,-19 901,-28 1185,-28 1153,0 1897,-272 2211,-806 324,-544 480,-2094 480,-4641 0,-1350 -128,-2293 -392,-2836 -264,-536 -607,-880 -1028,-1025 -420,-136 -1242,-218 -2456,-236zm0 16260l0 12072c1664,-54 2731,-298 3190,-743 461,-443 686,-1541 686,-3281l0 -4024c0,-1849 -206,-2963 -618,-3362 -409,-390 -1497,-608 -3258,-662z"/>
  <path id="1" class="fil1 str0" d="M148319 1273l12018 0c3799,0 6676,271 8633,825 1957,544 3533,1659 4736,3326 1204,1676 1802,4368 1802,8084 0,2511 -421,4261 -1273,5248 -851,997 -2534,1750 -5040,2284 2800,589 4698,1560 5696,2909 998,1360 1497,3436 1497,6245l0 3988c0,2909 -362,5058 -1077,6462 -714,1395 -1849,2357 -3415,2873 -1566,517 -4776,771 -9631,771l-13946 0 0 -43015zm12097 7341l0 9572c508,-19 901,-28 1185,-28 1153,0 1897,-272 2211,-806 324,-544 480,-2094 480,-4641 0,-1350 -128,-2293 -392,-2836 -264,-536 -607,-880 -1028,-1025 -420,-136 -1242,-218 -2456,-236zm0 16260l0 12072c1664,-54 2731,-298 3190,-743 461,-443 686,-1541 686,-3281l0 -4024c0,-1849 -206,-2963 -618,-3362 -409,-390 -1497,-608 -3258,-662z"/>
  <path class="fil6 str0" d="M198790 11626l-1563 6728 -10858 0 1563 -6728 10858 0zm-1971 8480l-5568 23960 -10858 0 5568 -23960 10858 0z"/>
  <path class="fil7" d="M221136 2936l-1514 5777 3112 0 -1529 5834 -3111 0 -5142 19625c-631,2408 -853,3757 -669,4032 183,273 1202,414 3069,414l-1543 5891 -4518 0c-2546,0 -4339,-104 -5377,-321 -1030,-207 -1863,-698 -2492,-1464 -630,-764 -920,-1632 -869,-2624 59,-981 562,-3294 1516,-6938l4878 -18615 -2375 0 1528 -5834 2375 0 1515 -5777 11146 0z"/>
  <path id="1" class="fil1 str0" d="M221136 2936l-1514 5777 3112 0 -1529 5834 -3111 0 -5142 19625c-631,2408 -853,3757 -669,4032 183,273 1202,414 3069,414l-1543 5891 -4518 0c-2546,0 -4339,-104 -5377,-321 -1030,-207 -1863,-698 -2492,-1464 -630,-764 -920,-1632 -869,-2624 59,-981 562,-3294 1516,-6938l4878 -18615 -2375 0 1528 -5834 2375 0 1515 -5777 11146 0z"/>
  <path class="fil8 str0" d="M75273 11626l0 6728 -11920 0 0 -6728 11920 0zm0 8480l0 23960 -11920 0 0 -23960 11920 0z"/>
 </g>
</svg>
