<?xml version="1.0" encoding="UTF-8"?>
<!DOCTYPE svg PUBLIC "-//W3C//DTD SVG 1.1//EN" "http://www.w3.org/Graphics/SVG/1.1/DTD/svg11.dtd">
<!-- Creator: CorelDRAW X8 -->
<svg xmlns="http://www.w3.org/2000/svg" xml:space="preserve" width="551px" height="196px" version="1.1" style="shape-rendering:geometricPrecision; text-rendering:geometricPrecision; image-rendering:optimizeQuality; fill-rule:evenodd; clip-rule:evenodd"
viewBox="0 0 552355 196496"
 xmlns:xlink="http://www.w3.org/1999/xlink">
 <defs>
  <style type="text/css">
   <![CDATA[
    .str0 {stroke:#727376;stroke-width:902.211}
    .fil8 {fill:#91D8F7}
    .fil9 {fill:white}
    .fil1 {fill:#FFF688;fill-rule:nonzero}
    .fil5 {fill:#91D8F7;fill-rule:nonzero}
    .fil2 {fill:#00AFEF;fill-rule:nonzero}
    .fil6 {fill:#33CC99;fill-rule:nonzero}
    .fil7 {fill:#91EDB0;fill-rule:nonzero}
    .fil4 {fill:#FFC2CA;fill-rule:nonzero}
    .fil0 {fill:#FF7D8E;fill-rule:nonzero}
    .fil3 {fill:#FFDD89;fill-rule:nonzero}
   ]]>
  </style>
 </defs>
 <g id="phone">
  <metadata id="CorelCorpID_0Corel-Layer"/>
  <path class="fil0 str0" d="M71220 133609l-29997 0 0 -18520c0,-5395 -314,-8743 -946,-10092 -631,-1326 -2038,-1999 -4198,-1999 -2427,0 -3979,808 -4635,2427 -656,1640 -995,5147 -995,10541l0 49490c0,5192 339,8563 995,10159 656,1574 2134,2360 4417,2360 2207,0 3663,-786 4344,-2382 679,-1574 1018,-5305 1018,-11170l0 -13419 29997 0 0 4159c0,11057 -849,18901 -2524,23509 -1674,4630 -5411,8675 -11164,12159 -5776,3484 -12863,5214 -21307,5214 -8762,0 -15994,-1461 -21697,-4404 -5680,-2945 -9465,-7013 -11310,-12228 -1843,-5214 -2767,-13036 -2767,-23487l0 -31150c0,-7686 291,-13441 850,-17284 582,-3843 2257,-7551 5096,-11102 2816,-3551 6723,-6361 11723,-8407 4999,-2044 10751,-3056 17254,-3056 8811,0 16092,1574 21843,4742 5727,3147 9490,7081 11310,11800 1796,4720 2693,12046 2693,22004l0 10136z"/>
  <path class="fil1 str0" d="M109762 87085l0 24025c2474,-2112 5144,-3708 8009,-4764 2864,-1056 5946,-1596 9222,-1596 5023,0 9295,1191 12838,3552 3519,2382 5680,5102 6480,8203 777,3102 1164,8765 1164,16969l0 60279 -28685 0 0 -61515c0,-5080 -268,-8362 -825,-9799 -559,-1461 -1773,-2181 -3690,-2181 -1771,0 -2960,742 -3591,2247 -607,1484 -922,4451 -922,8879l0 62369 -28687 0 0 -106668 28687 0z"/>
  <path class="fil2 str0" d="M227421 94771l0 13755 8009 0 0 13891 -8009 0 0 46725c0,5732 339,8945 995,9598 654,651 3373,988 8179,988l0 14025 -11626 0c-6552,0 -11237,-248 -14052,-764 -2789,-495 -5266,-1663 -7401,-3484 -2137,-1820 -3471,-3889 -4004,-6248 -511,-2338 -778,-7844 -778,-16520l0 -44320 -6115 0 0 -13891 6115 0 0 -13755 28687 0z"/>
  <path class="fil3 str0" d="M292950 140217l-26940 0 0 -5867c0,-6764 850,-11978 2523,-15665 1676,-3664 5074,-6900 10146,-9709 5071,-2810 11649,-4226 19780,-4226 9708,0 17037,1596 21963,4788 4926,3169 7887,7079 8883,11709 994,4630 1505,14182 1505,28634l0 43872 -27958 0 0 -7799c-1748,3147 -4029,5484 -6795,7058 -2767,1572 -6068,2359 -9927,2359 -5025,0 -9635,-1303 -13834,-3910 -4198,-2630 -6286,-8339 -6286,-17172l0 -7192c0,-6540 1116,-10991 3350,-13373 2232,-2382 7766,-5147 16599,-8293 9442,-3439 14489,-5732 15169,-6923 655,-1191 994,-3595 994,-7259 0,-4563 -363,-7529 -1115,-8922 -728,-1372 -1967,-2069 -3689,-2069 -1966,0 -3179,585 -3641,1754 -484,1146 -727,4180 -727,9057l0 9148zm9172 11978c-4634,3125 -7327,5732 -8057,7844 -752,2114 -1115,5125 -1115,9081 0,4540 315,7439 970,8765 632,1326 1918,1978 3835,1978 1819,0 2984,-517 3543,-1551 558,-1033 824,-3731 824,-8136l0 -17981z"/>
  <path class="fil4 str0" d="M367239 87085l29803 0c9416,0 16551,675 21405,2044 4853,1349 8761,4114 11747,8249 2985,4159 4465,10834 4465,20048 0,6227 -1044,10564 -3156,13013 -2110,2473 -6284,4339 -12498,5665 6940,1461 11649,3865 14125,7214 2475,3372 3714,8519 3714,15485l0 9890c0,7214 -898,12541 -2671,16025 -1771,3461 -4586,5843 -8469,7124 -3884,1281 -11844,1911 -23881,1911l-34584 0 0 -106668zm29997 18205l0 23733c1262,-45 2232,-67 2936,-67 2864,0 4709,-674 5486,-2000 800,-1349 1188,-5192 1188,-11507 0,-3349 -316,-5687 -971,-7036 -656,-1326 -1504,-2179 -2548,-2539 -1044,-337 -3082,-539 -6091,-584zm0 40320l0 29938c4126,-135 6771,-742 7911,-1843 1142,-1102 1699,-3821 1699,-8136l0 -9979c0,-4586 -509,-7350 -1528,-8339 -1020,-966 -3713,-1506 -8082,-1641z"/>
  <path class="fil5 str0" d="M492392 112760l-3878 16682 -26924 0 3878 -16682 26924 0zm-4888 21028l-13809 59415 -26924 0 13809 -59415 26924 0z"/>
  <path class="fil6 str0" d="M547807 91209l-3755 14326 7718 0 -3790 14466 -7718 0 -12751 48669c-1565,5968 -2114,9315 -1662,9995 454,678 2982,1030 7611,1030l-3827 14607 -11201 0c-6315,0 -10761,-257 -13332,-795 -2554,-516 -4621,-1733 -6182,-3629 -1562,-1896 -2284,-4050 -2154,-6508 147,-2434 1392,-8169 3760,-17206l12095 -46163 -5892 0 3790 -14466 5894 0 3753 -14326 27643 0z"/>
  <path class="fil7 str0" d="M186108 112760l0 16682 -29560 0 0 -16682 29560 0zm0 21028l0 59415 -29560 0 0 -59415 29560 0z"/>
  <g id="_2329874404496">
   <path class="fil8" d="M296076 7953c2364,5931 4073,12237 6438,18167 1317,167 1813,-2169 1709,-6139 3082,3008 4680,8375 6176,13906 8351,15787 5792,28357 -5126,38464 -4467,2493 -8933,2351 -13402,501 -9958,-7188 -14561,-20448 -4993,-39089 818,-3540 1761,-7070 3810,-10525 634,2804 1379,5310 2891,5763 613,-6890 1883,-14157 2497,-21048z"/>
   <path class="fil8" d="M276605 16366c2220,4664 3567,7402 6621,9037 -3999,7609 -7473,15947 -11471,23557 3061,6359 5596,12720 8655,19079 -2677,3407 -5354,6814 -8031,10220 -7163,-8744 -13440,-20107 -20603,-28851 8171,-11887 16659,-21155 24829,-33042z"/>
   <path class="fil8" d="M284798 25358c1494,-1551 2589,-3105 4084,-4656 0,-5565 0,-11129 0,-16694 -10937,-2946 -16987,12659 -4084,21350z"/>
   <path class="fil8" d="M312332 24724c-1494,-1552 -2589,-3104 -4084,-4656 0,-5565 0,-11130 0,-16695 10937,-2944 16987,12661 4084,21351z"/>
   <path class="fil8" d="M320216 16834c-2220,4664 -4244,7403 -7298,9038 3998,7608 8150,15946 12148,23555 -3060,6360 -5594,12720 -8655,19079 2677,3408 5355,6814 8032,10222 7162,-8745 13440,-20107 20602,-28852 -8171,-11886 -16659,-21156 -24829,-33042z"/>
  </g>
  <path class="fil9" d="M293067 4944c2365,5931 4073,12237 6439,18168 1316,167 1812,-2169 1708,-6139 3082,3007 4681,8374 6176,13906 8352,15786 5792,28357 -5126,38463 -4467,2494 -8933,2352 -13401,501 -9959,-7188 -14561,-20448 -4993,-39088 818,-3541 1760,-7070 3810,-10525 633,2804 1378,5309 2890,5762 613,-6889 1884,-14157 2497,-21048z"/>
  <path class="fil9" d="M273596 13358c2220,4664 3568,7401 6621,9036 -3998,7610 -7472,15948 -11471,23557 3061,6359 5596,12720 8656,19079 -2678,3408 -5355,6814 -8032,10221 -7163,-8744 -13439,-20107 -20602,-28851 8170,-11887 16658,-21156 24828,-33042z"/>
  <path class="fil9" d="M281789 22349c1495,-1551 2590,-3104 4084,-4655 0,-5565 0,-11130 0,-16695 -10937,-2946 -16987,12660 -4084,21350z"/>
  <path class="fil9" d="M309323 21716c-1494,-1552 -2589,-3105 -4083,-4657 0,-5565 0,-11130 0,-16694 10936,-2945 16987,12660 4083,21351z"/>
  <path class="fil9" d="M317208 13826c-2220,4663 -4245,7402 -7298,9037 3998,7609 8149,15946 12147,23556 -3059,6359 -5594,12720 -8655,19079 2677,3407 5356,6814 8033,10221 7162,-8745 13439,-20106 20601,-28851 -8171,-11887 -16659,-21156 -24828,-33042z"/>
 </g>
</svg>
